<?xml version="1.0" encoding="utf-8"?>
<!-- Generator: Adobe Illustrator 22.1.0, SVG Export Plug-In . SVG Version: 6.00 Build 0)  -->
<svg version="1.1" id="Calque_1" xmlns="http://www.w3.org/2000/svg" xmlns:xlink="http://www.w3.org/1999/xlink" x="0px" y="0px"
	 viewBox="0 0 233.5 40" style="enable-background:new 0 0 233.5 40;" xml:space="preserve">
<style type="text/css">
	.st0{fill:url(#SVGID_1_);}
	.st1{fill:url(#SVGID_2_);}
	.st2{fill:url(#SVGID_3_);}
	.st3{fill:url(#SVGID_4_);}
	.st4{fill:url(#SVGID_5_);}
	.st5{fill:url(#SVGID_6_);}
	.st6{fill:none;}
	.st7{display:none;fill:#FFFFFF;}
	.st8{fill:#00644E;}
	.st9{fill:#EE5E2B;}
	.st10{fill:#FFFFFF;}
	.st11{fill:#BCD536;}
	.st12{fill:#4F5253;}
</style>
<radialGradient id="SVGID_1_" cx="8.8838" cy="-38.4314" r="86.2951" gradientTransform="matrix(1 0 0 -1 0 39.9685)" gradientUnits="userSpaceOnUse">
	<stop  offset="0" style="stop-color:#8CC63F"/>
	<stop  offset="1" style="stop-color:#007B7D"/>
</radialGradient>
<path class="st0" d="M52.5,1.3c-3.6,0-6.4,1.4-8.6,4.1c0-1.1-0.4-2.1-1.2-2.9s-1.8-1.2-2.9-1.2s-2.1,0.4-2.9,1.2
	c-0.8,0.8-1.2,1.8-1.2,2.9V28c0,1.1,0.4,2.1,1.2,2.9s1.8,1.2,2.9,1.2s2.1-0.4,2.9-1.2c0.8-0.8,1.2-1.8,1.2-2.9V14
	c0-1.7,0.5-3,1.5-4.1c1-1,2.3-1.5,3.8-1.5S52,9,53,10.1c1,1,1.5,2.4,1.5,4.1v14c0,1.1,0.4,2.1,1.2,2.9s1.8,1.2,2.9,1.2
	s2.1-0.4,2.9-1.2c0.8-0.8,1.2-1.8,1.2-2.9v-16c0-3.3-1-5.9-3-7.9C57.9,2.3,55.4,1.3,52.5,1.3z"/>
<radialGradient id="SVGID_2_" cx="8.8848" cy="-38.4314" r="86.2949" gradientTransform="matrix(1 0 0 -1 0 39.9685)" gradientUnits="userSpaceOnUse">
	<stop  offset="0" style="stop-color:#8CC63F"/>
	<stop  offset="1" style="stop-color:#007B7D"/>
</radialGradient>
<path class="st1" d="M95.6,18.3c0.6-0.6,0.9-1.4,0.8-2.3c-0.3-4.1-1.9-7.6-4.9-10.5c-3-2.8-6.6-4.2-10.9-4.2
	c-4.4,0-8.2,1.5-11.3,4.5c-3.1,3-4.6,6.6-4.6,11s1.6,8.1,4.7,11c3.1,3,7,4.4,11.6,4.4c5.2,0,9.4-1.6,12.5-4.8
	c0.7-0.7,1.1-1.6,1.1-2.7s-0.4-2-1.1-2.8s-1.7-1.1-2.8-1.1c-1.1,0-2.2,0.5-3.2,1.4c-1.6,1.5-3.7,2.3-6.3,2.3c-1.9,0-3.5-0.5-5-1.4
	s-2.4-2.3-2.9-4h19.9C94.2,19.2,95,18.9,95.6,18.3z M73.5,13.2c0.5-1.4,1.5-2.5,2.9-3.3s2.8-1.3,4.4-1.3c1.8,0,3.4,0.4,4.7,1.2
	c1.4,0.8,2.3,1.9,2.7,3.4C88.2,13.2,73.5,13.2,73.5,13.2z"/>
<radialGradient id="SVGID_3_" cx="8.8838" cy="-38.4329" r="86.2955" gradientTransform="matrix(1 0 0 -1 0 39.9685)" gradientUnits="userSpaceOnUse">
	<stop  offset="0" style="stop-color:#8CC63F"/>
	<stop  offset="1" style="stop-color:#007B7D"/>
</radialGradient>
<path class="st2" d="M16.8,0C7.5,0,0,7.5,0,16.8c0,5.7,2.9,10.8,7.2,13.8L6.8,40l7.9-6.6c0.7,0.1,1.4,0.1,2.1,0.1
	c9.3,0,16.8-7.5,16.8-16.8C33.6,7.5,26,0,16.8,0z M16.8,26.2c-5.2,0-9.4-4.2-9.4-9.4s4.2-9.4,9.4-9.4s9.4,4.2,9.4,9.4
	S22,26.2,16.8,26.2z"/>
<radialGradient id="SVGID_4_" cx="8.8833" cy="-38.4368" r="86.3015" gradientTransform="matrix(1 0 0 -1 0 39.9685)" gradientUnits="userSpaceOnUse">
	<stop  offset="0" style="stop-color:#8CC63F"/>
	<stop  offset="1" style="stop-color:#007B7D"/>
</radialGradient>
<circle class="st3" cx="12.5" cy="16.8" r="1.5"/>
<radialGradient id="SVGID_5_" cx="8.8853" cy="-38.4368" r="86.3008" gradientTransform="matrix(1 0 0 -1 0 39.9685)" gradientUnits="userSpaceOnUse">
	<stop  offset="0" style="stop-color:#8CC63F"/>
	<stop  offset="1" style="stop-color:#007B7D"/>
</radialGradient>
<circle class="st4" cx="16.8" cy="16.8" r="1.5"/>
<radialGradient id="SVGID_6_" cx="8.8833" cy="-38.4368" r="86.3016" gradientTransform="matrix(1 0 0 -1 0 39.9685)" gradientUnits="userSpaceOnUse">
	<stop  offset="0" style="stop-color:#8CC63F"/>
	<stop  offset="1" style="stop-color:#007B7D"/>
</radialGradient>
<circle class="st5" cx="21.1" cy="16.8" r="1.5"/>
<g>
	<rect x="114.4" y="1.9" class="st6" width="119.1" height="29.7"/>
	<rect id="XMLID_15_" x="111.5" y="-1.1" class="st7" width="122" height="35.7"/>
	<rect id="XMLID_14_" x="114.4" y="1.9" class="st8" width="29.7" height="29.7"/>
	<path id="XMLID_1_" class="st8" d="M222.1,16.3c-1,0-1.7-0.4-1.7-1s0.5-1,1.5-1l2.3-0.1v2C223.3,16.3,222.7,16.3,222.1,16.3
		 M222.8,9.8c-1.1,0-2,0.1-3.2,0.4l0.1,1.5c0.9-0.1,1.9-0.3,2.9-0.3c1.1,0,1.7,0.4,1.7,1.3v0.1l-2.2,0.1c-2.3,0.1-3.3,0.9-3.3,2.3
		c0,1.7,1,2.6,2.9,2.6c1,0,1.7,0,4.3-0.4v-4.7C226.1,10.7,225.1,9.8,222.8,9.8 M214.5,9.8c-1.1,0-2.4,0.3-3.2,0.5
		c-0.5-0.4-1.3-0.5-2-0.5c-1.4,0-3.3,0.3-4,0.4v7.3h1.8v-5.9c0.6-0.1,1.1-0.1,1.7-0.1c1.1,0,1.8,0.5,1.8,1.8v4.3h1.8v-4.8
		c0-0.4,0-0.8-0.1-1c0.6-0.1,1.3-0.3,1.8-0.3c1.1,0,1.8,0.6,1.8,1.8v4.3h1.8v-4.8C217.7,10.7,216.4,9.8,214.5,9.8 M199.8,16.3
		c-1,0-1.7-0.4-1.7-1s0.5-1,1.5-1l2.3-0.1v2C201,16.3,200.2,16.3,199.8,16.3 M200.4,9.8c-1.1,0-2,0.1-3.2,0.4l0.1,1.5
		c0.9-0.1,1.9-0.3,2.9-0.3c1.1,0,1.7,0.4,1.7,1.3v0.1l-2.2,0.1c-2.3,0.1-3.3,0.9-3.3,2.3c0,1.7,1,2.6,2.9,2.6c1,0,1.7,0,4.3-0.4
		v-4.7C203.6,10.7,202.6,9.8,200.4,9.8 M191.6,16c-0.6,0-1.1,0-2.2-0.1v-4.5c0.6-0.1,1.3-0.1,2-0.1c1.7,0,2.2,1,2.2,2.4
		C193.7,15,192.9,16,191.6,16 M191.8,9.8c-1.5,0-3.2,0.3-4.1,0.4v10.3h1.8v-3.1c1,0.1,1.7,0.1,2.4,0.1c2.2,0,3.6-1.5,3.6-3.8
		C195.5,11.3,194.2,9.8,191.8,9.8 M185.9,10h-1.8v6c-0.8,0.1-1.4,0.1-2,0.1c-1.1,0-1.7-0.6-1.7-1.8V10h-1.9v4.8c0,2,1.3,2.9,3.2,2.9
		c1.4,0,3.4-0.3,4.3-0.4V10H185.9z M173.1,16.2c-1.4,0-2.3-1-2.3-2.4s0.9-2.3,2.3-2.3s2.3,0.9,2.3,2.3S174.4,16.2,173.1,16.2
		 M173.1,9.7c-2.6,0-4.2,1.7-4.2,4c0,2.4,1.7,4.1,4.2,4.1c2.4,0,4.2-1.7,4.2-4.1C177.2,11.3,175.6,9.7,173.1,9.7 M168.5,9.8
		c-1.4,0-3.3,0.3-4.6,0.5v7.3h1.8v-5.9c0.9-0.1,1.8-0.1,2.8-0.1L168.5,9.8L168.5,9.8z M162.4,11.3h-5.6v1.8h3.8v2.3
		c-1,0.3-2.2,0.5-3.2,0.5c-2.3,0-3.7-1.5-3.7-3.8c0-2.2,1.7-3.7,4.2-3.7c0.6,0,1.7,0.1,3.2,0.4l0.4-1.8c-1.3-0.4-2.7-0.5-3.7-0.5
		c-3.6,0-6,2.2-6,5.5c0,3.4,2.3,5.6,5.7,5.6c1.5,0,3.2-0.4,5-1.1v-5.1H162.4z"/>
	<path class="st9" d="M138.9,6.6c-1.4-0.1-2.6-0.1-4.1-0.1c-3.7,0.1-7.1,1.5-10,3.7c-2.7,2.2-4.5,4.7-5.2,7.8h0.1
		c1.3-4,4.8-7.1,10.1-8c1.7-0.3,3.8-0.1,5.4,0.1L138.9,6.6z"/>
	<polygon class="st10" points="128.3,16.8 129.5,13.7 130.5,16.8 	"/>
	<polygon class="st10" points="130.3,17.3 131.2,16.2 133.3,16.2 134.2,17.3 	"/>
	<polygon class="st10" points="125.7,17.9 126.3,16.9 128.3,16.9 129,17.9 	"/>
	<path class="st11" d="M129.7,19.1l1.3,7.1c0.9-0.3,1.7-0.5,2.4-0.9L129.7,19.1z"/>
	<path class="st11" d="M137.4,22.4l-6.8-3.3l4.6,5.2C136.1,23.7,136.9,23.1,137.4,22.4z"/>
	<path class="st11" d="M132.7,19.1l5.7,1.9c0.4-0.6,0.6-1.3,0.8-1.9H132.7z"/>
	<path class="st11" d="M128.6,26.6l0.5-7.5l-3.3,7.3c0.8,0.1,1.5,0.3,2.3,0.3C128.2,26.6,128.5,26.6,128.6,26.6z"/>
	<path class="st11" d="M123.4,25.6l4.8-6.5l-7.4,4.5C121.5,24.5,122.3,25.1,123.4,25.6z"/>
	<path class="st11" d="M119.4,19.1c-0.1,0.9,0,1.8,0.3,2.6l7-2.6H119.4z"/>
	<path class="st12" d="M167.4,22.3h0.8l1.5,3.7h-0.9l-0.4-0.9H167l-0.4,0.9h-0.9L167.4,22.3z M168.3,24.5l-0.5-1.1l-0.5,1.1H168.3z"
		/>
	<path class="st12" d="M170.2,25.5l0.5-0.6c0.4,0.3,0.6,0.5,1.1,0.5c0.4,0,0.5-0.1,0.5-0.4l0,0c0-0.3-0.1-0.3-0.8-0.5
		c-0.8-0.3-1.3-0.4-1.3-1.1l0,0c0-0.6,0.5-1.1,1.3-1.1c0.5,0,1,0.1,1.4,0.5l-0.4,0.6c-0.4-0.3-0.6-0.4-1-0.4c-0.3,0-0.5,0.1-0.5,0.4
		l0,0c0,0.3,0.1,0.4,0.8,0.5c0.8,0.3,1.1,0.5,1.1,1.1l0,0c0,0.8-0.5,1.1-1.4,1.1C171.2,26,170.6,25.9,170.2,25.5z"/>
	<path class="st12" d="M173.5,25.5l0.5-0.6c0.4,0.3,0.6,0.5,1.1,0.5c0.4,0,0.5-0.1,0.5-0.4l0,0c0-0.3-0.1-0.3-0.8-0.5
		c-0.8-0.3-1.3-0.4-1.3-1.1l0,0c0-0.6,0.5-1.1,1.3-1.1c0.5,0,1,0.1,1.4,0.5l-0.4,0.6c-0.4-0.3-0.6-0.4-1-0.4c-0.3,0-0.5,0.1-0.5,0.4
		l0,0c0,0.3,0.1,0.4,0.8,0.5c0.8,0.3,1.1,0.5,1.1,1.1l0,0c0,0.8-0.5,1.1-1.4,1.1C174.5,26,174,25.9,173.5,25.5z"/>
	<path class="st12" d="M177.2,22.3h2.8v0.8h-2v0.8h1.8v0.8H178v0.8h2V26h-2.8V22.3z"/>
	<path class="st12" d="M181.7,23.1h-1.1v-0.8h3.1v0.8h-1.1V26h-0.8V23.1z"/>
	<path class="st12" d="M185.9,22.3h0.9l1,1.5l1-1.5h0.9V26H189v-2.4l-1,1.5l0,0l-1-1.5V26h-0.8v-3.7H185.9z"/>
	<path class="st12" d="M191.8,22.3h0.8l1.5,3.7h-0.9l-0.4-0.9h-1.5l-0.4,0.9H190L191.8,22.3z M192.7,24.5l-0.5-1.1l-0.5,1.1H192.7z"
		/>
	<path class="st12" d="M194.7,22.3h0.8l1.8,2.3v-2.3h0.8V26h-0.6l-1.8-2.4V26h-0.8v-3.7H194.7z"/>
	<path class="st12" d="M200.2,22.3h0.8l1.5,3.7h-0.9l-0.4-0.9h-1.5l-0.4,0.9h-0.9L200.2,22.3z M201.1,24.5l-0.5-1.1l-0.5,1.1H201.1z
		"/>
	<path class="st12" d="M202.7,24.1L202.7,24.1c0-1,0.8-1.9,1.9-1.9c0.6,0,1,0.1,1.4,0.5l-0.5,0.6c-0.3-0.3-0.5-0.4-1-0.4
		c-0.6,0-1,0.5-1,1.1l0,0c0,0.6,0.5,1.1,1.1,1.1c0.3,0,0.5-0.1,0.8-0.3v-0.5h-0.8v-0.8h1.7v1.7c-0.4,0.4-0.9,0.6-1.5,0.6
		C203.5,26,202.7,25.2,202.7,24.1z"/>
	<path class="st12" d="M207.1,22.3h2.8v0.8h-2v0.8h1.8v0.8h-1.8v0.8h2V26h-2.8V22.3z"/>
	<path class="st12" d="M210.8,22.3h0.9l1,1.5l1-1.5h0.9V26h-0.8v-2.4l-1,1.5l0,0l-1-1.5V26H211v-3.7H210.8z"/>
	<path class="st12" d="M215.5,22.3h2.8v0.8h-2v0.8h1.8v0.8h-1.8v0.8h2V26h-2.8V22.3z"/>
	<path class="st12" d="M219.1,22.3h0.8l1.8,2.3v-2.3h0.8V26h-0.6l-1.8-2.4V26h-0.8v-3.7H219.1z"/>
	<path class="st12" d="M224.1,23.1h-1.1v-0.8h3.1v0.8h-1.1V26h-0.8V23.1z"/>
</g>
</svg>
